<?xml version="1.0" encoding="UTF-8"?><svg id="Capa_1" xmlns="http://www.w3.org/2000/svg" viewBox="0 0 533.33 533.33"><path d="M441.03,124.33c0-17.73-14.37-32.04-32.02-32.04-17.66,0-32.04,14.31-32.04,32.04s14.38,31.97,32.04,31.97,32.02-14.31,32.02-31.97"/><path d="M483.7,374.41c-1.19,26-5.54,40.13-9.15,49.51-4.85,12.44-10.64,21.34-20.02,30.67-9.28,9.33-18.17,15.1-30.62,19.9-9.38,3.66-23.56,8.03-49.56,9.27-28.11,1.24-36.44,1.5-107.72,1.5s-79.61-.26-107.72-1.5c-26-1.24-40.12-5.6-49.5-9.27-12.51-4.8-21.34-10.57-30.67-19.9-9.4-9.33-15.18-18.23-19.97-30.67-3.61-9.38-8.03-23.51-9.15-49.51-1.37-28.11-1.62-36.57-1.62-107.71s.25-79.68,1.62-107.79c1.12-26,5.54-40.12,9.15-49.58,4.78-12.43,10.57-21.27,19.97-30.6,9.33-9.32,18.16-15.1,30.67-19.95,9.38-3.68,23.5-7.97,49.5-9.21,28.11-1.24,36.51-1.56,107.72-1.56s79.61.32,107.72,1.56c26,1.24,40.18,5.54,49.56,9.21,12.44,4.85,21.34,10.64,30.62,19.95,9.38,9.33,15.17,18.17,20.02,30.6,3.61,9.46,7.96,23.58,9.15,49.58,1.3,28.11,1.62,36.51,1.62,107.79s-.32,79.6-1.62,107.71h0ZM531.71,156.72c-1.3-28.41-5.79-47.83-12.44-64.73-6.77-17.54-15.85-32.41-30.72-47.27-14.8-14.8-29.67-23.88-47.21-30.73-16.97-6.59-36.32-11.12-64.75-12.36-28.43-1.37-37.51-1.62-109.96-1.62s-81.54.25-109.96,1.62c-28.36,1.24-47.69,5.77-64.75,12.36-17.48,6.85-32.34,15.93-47.14,30.73-14.87,14.87-23.95,29.73-30.79,47.27-6.59,16.91-11.07,36.32-12.44,64.73-1.24,28.43-1.55,37.52-1.55,109.98s.32,81.47,1.55,109.9c1.37,28.36,5.85,47.76,12.44,64.75,6.84,17.48,15.92,32.41,30.79,47.21,14.8,14.8,29.67,23.95,47.14,30.79,17.05,6.59,36.39,11.07,64.75,12.37,28.43,1.3,37.57,1.62,109.96,1.62s81.54-.32,109.96-1.62,47.77-5.79,64.75-12.37c17.54-6.84,32.41-15.99,47.21-30.79,14.87-14.8,23.95-29.73,30.72-47.21,6.65-16.99,11.14-36.39,12.44-64.75,1.3-28.43,1.62-37.51,1.62-109.9s-.32-81.55-1.62-109.98h0Z"/><path d="M266.63,355.51c-49.06,0-88.88-39.75-88.88-88.81s39.81-88.94,88.88-88.94,88.94,39.8,88.94,88.94-39.87,88.81-88.94,88.81ZM266.63,129.68c-75.63,0-136.89,61.39-136.89,137.02s61.25,136.89,136.89,136.89,136.95-61.32,136.95-136.89-61.32-137.02-136.95-137.02Z"/></svg>