<?xml version="1.0" encoding="UTF-8"?><svg id="Capa_1" xmlns="http://www.w3.org/2000/svg" viewBox="0 0 530.78 533.33"><path fill="#FFFFFF" fill-rule="evenodd" d="M386.99,319.6c-6.6-3.31-39.07-19.28-45.12-21.48-6.05-2.2-10.45-3.3-14.86,3.31s-17.06,21.48-20.91,25.89c-3.85,4.41-7.7,4.96-14.31,1.65-6.6-3.3-27.88-10.28-53.1-32.78-19.63-17.51-32.88-39.13-36.73-45.74-3.85-6.61-.41-10.18,2.89-13.48,2.97-2.96,6.61-7.71,9.91-11.57,3.3-3.85,4.4-6.61,6.6-11.02,2.2-4.41,1.1-8.26-.55-11.57-1.65-3.31-14.86-35.81-20.36-49.03-5.36-12.88-10.8-11.13-14.86-11.34-3.85-.19-8.25-.23-12.66-.23s-11.56,1.65-17.61,8.26c-6.05,6.61-23.11,22.59-23.11,55.09s23.66,63.9,26.96,68.31c3.3,4.41,46.56,71.11,112.81,99.71,15.75,6.8,28.05,10.87,37.64,13.91,15.82,5.03,30.21,4.32,41.59,2.62,12.69-1.89,39.07-15.97,44.57-31.4,5.5-15.43,5.5-28.65,3.85-31.4-1.65-2.76-6.05-4.41-12.66-7.71M266.5,484.12h-.09c-39.42-.02-78.08-10.61-111.8-30.62l-8.02-4.76-83.14,21.81,22.19-81.06-5.22-8.31c-21.99-34.97-33.6-75.39-33.59-116.9.05-121.11,98.59-219.64,219.75-219.64,58.67.02,113.82,22.9,155.3,64.42,41.47,41.52,64.3,96.71,64.27,155.4-.05,121.12-98.59,219.66-219.66,219.66M453.45,77.51C403.55,27.55,337.2.03,266.5,0,120.83,0,2.27,118.55,2.21,264.26c-.02,46.58,12.15,92.04,35.28,132.12L0,533.33l140.1-36.75c38.6,21.05,82.06,32.15,126.29,32.17h.11c145.65,0,264.22-118.56,264.28-264.28.03-70.62-27.44-137.01-77.33-186.97"/></svg>